<svg xmlns="http://www.w3.org/2000/svg" width="32" height="32" fill="currentColor" viewBox="0 0 32 32">
  <path fill-rule="evenodd" d="M16 28c6.627 0 12-5.373 12-12S22.627 4 16 4 4 9.373 4 16s5.373 12 12 12Zm0 2c7.732 0 14-6.268 14-14S23.732 2 16 2 2 8.268 2 16s6.268 14 14 14Z" clip-rule="evenodd"/>
  <path d="M14.672 14.838h2.306c.406 0 .74-.097 1-.29.261-.194.392-.508.392-.943 0-.242-.044-.44-.13-.595a.965.965 0 0 0-.349-.362 1.372 1.372 0 0 0-.507-.174 2.808 2.808 0 0 0-.58-.058h-2.132v2.421Zm-2.276-4.191h4.872c.493 0 .942.043 1.348.13.406.088.754.232 1.044.436.29.193.513.454.667.783.165.328.247.734.247 1.217 0 .523-.121.958-.363 1.306-.232.348-.58.633-1.044.855.638.184 1.112.508 1.421.972.32.454.479 1.005.479 1.652 0 .522-.102.977-.305 1.363a2.633 2.633 0 0 1-.826.928c-.339.242-.73.421-1.175.537a5.211 5.211 0 0 1-1.348.174h-5.017V10.647Zm2.276 8.584h2.436c.223 0 .435-.02.638-.058.203-.048.382-.12.537-.217.154-.107.275-.247.362-.421.097-.174.145-.396.145-.667 0-.532-.15-.909-.45-1.131-.299-.232-.695-.348-1.188-.348h-2.48v2.842Z"/>
</svg>
