<svg xmlns="http://www.w3.org/2000/svg" width="32" height="32" fill="currentColor" viewBox="0 0 32 32">
  <path fill-rule="evenodd" d="M16 28c6.627 0 12-5.373 12-12S22.627 4 16 4 4 9.373 4 16s5.373 12 12 12Zm0 2c7.732 0 14-6.268 14-14S23.732 2 16 2 2 8.268 2 16s6.268 14 14 14Z" clip-rule="evenodd"/>
  <path d="M14.403 19.086h2.03c.329 0 .648-.053.957-.16.31-.106.585-.28.827-.521.241-.252.435-.576.58-.972.145-.396.217-.88.217-1.45 0-.522-.053-.99-.16-1.407a2.742 2.742 0 0 0-.492-1.087 2.157 2.157 0 0 0-.928-.682c-.377-.164-.846-.246-1.407-.246h-1.624v6.525Zm-2.276-8.439h4.466a5.27 5.27 0 0 1 1.856.319c.58.213 1.077.532 1.493.957.425.425.754.957.986 1.595.242.638.363 1.387.363 2.247 0 .755-.097 1.45-.29 2.088a4.534 4.534 0 0 1-.885 1.653 4.1 4.1 0 0 1-1.464 1.102c-.58.261-1.267.392-2.06.392h-4.465V10.647Z"/>
</svg>
