<?xml version="1.0" encoding="utf-8"?>
<!-- Generator: Adobe Illustrator 15.1.0, SVG Export Plug-In . SVG Version: 6.00 Build 0)  -->
<!DOCTYPE svg PUBLIC "-//W3C//DTD SVG 1.1//EN" "http://www.w3.org/Graphics/SVG/1.1/DTD/svg11.dtd">
<svg version="1.1" id="Layer_1" xmlns="http://www.w3.org/2000/svg" xmlns:xlink="http://www.w3.org/1999/xlink" x="0px" y="0px"
	 width="85px" height="85px" viewBox="0 0 85 85" enable-background="new 0 0 85 85" xml:space="preserve">
<g>
	<rect x="7.088" y="16.571" fill="#E21C47" width="14.175" height="51.892"/>
	<polygon fill="#EF4E4C" points="21.264,72.619 42.527,68.463 21.264,68.463 	"/>
	<polygon fill="#EF4E4C" points="42.527,16.571 21.264,12.418 21.264,16.571 	"/>
	<rect x="21.264" y="16.571" fill="#ED3035" width="21.264" height="51.892"/>
	<path fill="#F05B5B" d="M8.694,9.967c-0.885-0.172-1.605,0.408-1.605,1.289l0,0v5.315h14.175v-4.152L8.694,9.967z"/>
	<path fill="#F38480" d="M22.515,0.293c-0.687-0.557-1.25-0.297-1.251,0.58v11.545l21.264,4.152L22.515,0.293z"/>
	<path fill="#CF1D3F" d="M1.633,16.571C0.734,16.577,0,17.295,0,18.174v48.694c0,0.882,0.739,1.595,1.642,1.595l0,0h5.446V16.571
		H1.633z"/>
	<path fill="#F05B5B" d="M7.088,68.463v5.322l0,0c0,0.883,0.721,1.461,1.605,1.289l12.57-2.455v-4.156H7.088z"/>
	<path fill="#F38480" d="M22.515,84.746l20.012-16.283l-21.264,4.156V84.17C21.266,85.043,21.83,85.303,22.515,84.746z"/>
	<rect x="63.792" y="16.571" fill="#DDD262" width="14.175" height="51.892"/>
	<polygon fill="#FFCB31" points="63.792,72.619 42.527,68.463 63.792,68.463 	"/>
	<polygon fill="#FFCB31" points="42.527,16.571 63.792,12.418 63.792,16.571 	"/>
	<rect x="42.527" y="16.571" fill="#F1BD19" width="21.265" height="51.892"/>
	<path fill="#FFEA81" d="M76.361,9.966c0.886-0.171,1.605,0.409,1.605,1.289l0,0v5.316H63.792v-4.152L76.361,9.966z"/>
	<path fill="#FFD549" d="M62.541,0.293c0.687-0.557,1.249-0.297,1.251,0.579v11.546l-21.265,4.152L62.541,0.293z"/>
	<path fill="#93D5D9" d="M83.423,16.571c0.898,0.005,1.632,0.725,1.632,1.604v48.694c0,0.882-0.738,1.595-1.642,1.595h0.001h-5.447
		V16.571H83.423z"/>
	<path fill="#FFEA81" d="M77.967,68.463v5.322l0,0c0,0.883-0.72,1.461-1.605,1.289l-12.569-2.455v-4.156H77.967z"/>
	<path fill="#FFD549" d="M62.541,84.746L42.527,68.463l21.265,4.156V84.17C63.79,85.043,63.226,85.303,62.541,84.746z"/>
</g>
</svg>
