<?xml version="1.0" encoding="UTF-8"?>
<svg width="285px" height="40px" viewBox="0 0 285 40" version="1.1" xmlns="http://www.w3.org/2000/svg" xmlns:xlink="http://www.w3.org/1999/xlink">
    <!-- Generator: Sketch 52.4 (67378) - http://www.bohemiancoding.com/sketch -->
    <title>LRN Demos Logo@2x</title>
    <desc>Created with Sketch.</desc>
    <defs>
        <polygon id="path-1" points="0.00139863636 0.553671071 12.0527077 0.553671071 12.0527077 39.1836735 0.00139863636 39.1836735"></polygon>
        <polygon id="path-3" points="0.534525909 0.553671071 12.585835 0.553671071 12.585835 39.1836735 0.534525909 39.1836735"></polygon>
        <polygon id="path-5" points="0 0.677959184 7.40676682 0.677959184 7.40676682 27.6297959 0 27.6297959"></polygon>
    </defs>
    <g id="Author-guide" stroke="none" stroke-width="1" fill="none" fill-rule="evenodd">
        <g id="Author-API-Landing" transform="translate(-468.000000, -16.000000)">
            <g id="Group-4">
                <g id="LRN-Demos-Logo" transform="translate(468.000000, 16.000000)">
                    <path d="M157.224251,9.32914286 C156.598979,9.32914286 156.063383,9.54955102 155.620756,9.98955102 C155.178951,10.4287347 154.956815,10.9593469 154.956815,11.5805714 C154.956815,12.227102 155.18142,12.7773061 155.62816,13.229551 C156.074079,13.6817959 156.616256,13.9087347 157.249756,13.9087347 C157.866801,13.9087347 158.395815,13.6866939 158.840088,13.2426122 C159.28107,12.7977143 159.504029,12.2622041 159.504029,11.632 C159.504029,10.9936327 159.279424,10.4507755 158.833506,10.0017959 C158.384297,9.55281633 157.848701,9.32914286 157.224251,9.32914286" id="Fill-1" fill="#143746"></path>
                    <polygon id="Fill-3" fill="#143746" points="155.306474 30.345551 159.140383 30.345551 159.140383 15.2165714 155.306474 17.4761633"></polygon>
                    <path d="M66.8705323,20.8892245 C67.3008186,19.9537143 67.7722414,19.2990204 68.2773959,18.9292245 C69.0853141,18.3349388 70.0215777,18.0394286 71.0911232,18.0394286 C72.0775732,18.0394286 72.9406141,18.303102 73.6868277,18.8312653 C74.4313959,19.3594286 74.9324368,20.0459592 75.1850141,20.8892245 L66.8705323,20.8892245 Z M70.9018959,14.8263673 C68.636105,14.8263673 66.7504141,15.5896327 65.2489368,17.1145306 C63.7458141,18.6394286 62.9938414,20.5561633 62.9938414,22.8647347 C62.9938414,25.1169796 63.7482823,26.9920816 65.2555186,28.4900408 C66.762755,29.9863673 68.7150868,30.7349388 71.1125141,30.7349388 C72.6575959,30.7349388 73.9920595,30.4639184 75.1150823,29.9210612 C76.2389277,29.3790204 77.2031641,28.5422857 78.0086141,27.4116735 L74.7785868,25.9096327 C73.7477095,26.9014694 72.5169095,27.3977959 71.0845414,27.3977959 C69.8858277,27.3977959 68.9002005,27.0802449 68.1276595,26.4451429 C67.3559414,25.8100408 66.880405,24.9545306 66.7018732,23.8794286 L79.0205686,23.8794286 L79.0337323,23.1561633 C79.0337323,20.6533061 78.2801141,18.6394286 76.772055,17.1145306 C75.2648186,15.5896327 73.3075505,14.8263673 70.9018959,14.8263673 Z" id="Fill-5" fill="#143746"></path>
                    <path d="M91.66202,26.0136327 C90.8680882,26.8438367 89.8684745,27.2585306 88.6656473,27.2585306 C87.4998427,27.2585306 86.5166836,26.8373061 85.7186382,25.9932245 C84.9205927,25.1491429 84.52157,24.0740408 84.52157,22.767102 C84.52157,21.4691429 84.9131882,20.4054694 85.6972473,19.5752653 C86.4821291,18.7466939 87.4661109,18.3311837 88.6516609,18.3311837 C89.8635382,18.3311837 90.8680882,18.7385306 91.66202,19.5540408 C92.4534836,20.3711837 92.8508609,21.4364898 92.8508609,22.7532245 C92.8508609,24.096898 92.4534836,25.1842449 91.66202,26.0136327 Z M92.6822018,16.8846531 C91.9993382,16.1989388 91.2572382,15.6846531 90.4509655,15.3409796 C89.6463382,14.9981224 88.7874109,14.8266939 87.87007,14.8266939 C85.8774245,14.8266939 84.1850745,15.5728163 82.7921973,17.0650612 C81.4001427,18.5573061 80.7016473,20.4724082 80.7016473,22.8079184 C80.7016473,25.0617959 81.4231791,26.9458776 82.8629518,28.4617959 C84.3027245,29.976898 86.0090609,30.7352653 87.9819609,30.7352653 C88.8622791,30.7352653 89.6767791,30.5793469 90.4303973,30.2691429 C91.1848382,29.9589388 91.93352,29.4511837 92.6822018,28.7466939 L92.6822018,30.3458776 L96.5169336,30.3458776 L96.5169336,15.2160816 L92.6822018,15.2160816 L92.6822018,16.8846531 Z" id="Fill-7" fill="#143746"></path>
                    <path d="M103.786799,15.4109388 C103.196903,15.8003265 102.723835,16.3701224 102.368417,17.1211429 L102.368417,15.2158367 L99.0816214,15.2158367 L99.0816214,30.3456327 L102.88838,30.3456327 L102.88838,24.2272653 L102.874394,23.4893061 C102.874394,21.3766531 103.094062,19.9595102 103.423976,19.3505306 C103.82053,18.621551 104.268094,18.2525714 104.858812,18.2525714 C105.39523,18.2525714 105.848553,18.3521633 106.297762,18.5742041 L107.540903,15.2199184 C106.997903,14.9603265 106.221249,14.8272653 105.725144,14.8272653 C105.023358,14.8272653 104.376694,15.0207347 103.786799,15.4109388" id="Fill-9" fill="#143746"></path>
                    <path d="M117.501169,14.8266122 C116.763182,14.8266122 116.040005,14.9678367 115.33575,15.2527347 C114.629028,15.536 113.83921,16.0413061 112.971232,16.7662041 L112.971232,15.216 L109.1365,15.216 L109.1365,30.3457959 L112.971232,30.3457959 L112.971232,24.2755918 C112.971232,22.7017143 113.027178,21.6780408 113.139891,21.2070204 C113.355446,20.298449 113.738837,19.5874286 114.296646,19.0755918 C114.850341,18.5596735 115.515928,18.3033469 116.292582,18.3033469 C116.889882,18.3033469 117.390923,18.458449 117.79735,18.7686531 C118.205423,19.0796735 118.488441,19.5294694 118.652987,20.1221224 C118.815887,20.7164082 118.89816,21.9139592 118.89816,23.7196735 L118.89816,30.3457959 L122.69011,30.3457959 L122.69011,20.3474286 C122.69011,18.6045714 122.24666,17.2878367 121.358937,16.3980408 C120.30091,15.3506939 119.014987,14.8266122 117.501169,14.8266122" id="Fill-11" fill="#143746"></path>
                    <path d="M135.424035,25.9649796 C134.628458,26.7902857 133.628022,27.2033469 132.42684,27.2033469 C131.226481,27.2033469 130.234272,26.7951837 129.452681,25.9796735 C128.668622,25.1641633 128.277004,24.0972245 128.277004,22.7813061 C128.277004,21.5013061 128.672735,20.4515102 129.465845,19.631102 C130.257308,18.8106939 131.25034,18.400898 132.441649,18.400898 C133.660931,18.400898 134.663013,18.8049796 135.444604,19.6180408 C136.229485,20.4286531 136.620281,21.4833469 136.620281,22.7813061 C136.620281,24.078449 136.222081,25.1396735 135.424035,25.9649796 M136.444217,15.8972245 C135.176395,15.1837551 133.819717,14.8262041 132.378299,14.8262041 C130.384008,14.8262041 128.619258,15.5119184 127.083226,16.8841633 C125.33164,18.4613061 124.457081,20.4302857 124.457081,22.7943673 C124.457081,25.000898 125.231267,26.876 126.782108,28.4196735 C128.330481,29.9625306 130.201363,30.7355918 132.393108,30.7355918 C133.881422,30.7355918 135.243035,30.3845714 136.479595,29.6857959 C137.716154,28.9853878 138.691908,28.0147755 139.407681,26.7715102 C140.124276,25.5298776 140.482985,24.1943673 140.482985,22.7666122 C140.482985,21.3486531 140.127567,20.0278367 139.415085,18.8041633 C138.704249,17.5804898 137.713685,16.6115102 136.444217,15.8972245" id="Fill-13" fill="#143746"></path>
                    <path d="M151.4427,22.2229388 C150.848691,21.8996735 150.208609,21.6564082 149.519986,21.5013061 C148.833009,21.3421224 148.192927,21.1919184 147.597273,21.0457959 C147.003264,20.9013061 146.51045,20.7225306 146.122123,20.5127347 C145.731327,20.3029388 145.536341,19.9690612 145.536341,19.5094694 C145.536341,18.9421224 145.770818,18.5364082 146.244709,18.2841633 C146.714486,18.033551 147.19825,17.9086531 147.689418,17.9086531 C148.902118,17.9086531 149.890214,18.5062041 150.308159,19.0939592 L153.2165,17.440898 C152.545977,16.4555918 151.66895,15.7592653 150.703891,15.4139592 C149.740477,15.0694694 148.766368,14.8955918 147.782386,14.8955918 C147.043577,14.8955918 146.314641,14.991102 145.598045,15.1788571 C144.878982,15.3682449 144.243836,15.6596735 143.690141,16.0580408 C143.136445,16.4564082 142.688882,16.9617143 142.350741,17.5796735 C142.0126,18.1968163 141.843941,18.9225306 141.843941,19.7592653 C141.843941,20.7225306 142.037282,21.4751837 142.428077,22.0196735 C142.818873,22.5633469 143.309218,22.9870204 143.905695,23.2882449 C144.498882,23.5919184 145.139786,23.8106939 145.829232,23.9462041 C146.515386,24.0841633 147.156291,24.2302857 147.751945,24.3853878 C148.345132,24.5445714 148.837945,24.7478367 149.229564,24.998449 C149.617068,25.2490612 149.812877,25.6368163 149.812877,26.1600816 C149.812877,26.4539592 149.734718,26.7086531 149.582514,26.9290612 C149.429486,27.1486531 149.229564,27.3323265 148.9811,27.4776327 C148.735927,27.6229388 148.468541,27.7274286 148.183055,27.791102 C147.894277,27.8523265 147.616195,27.8857959 147.3521,27.8857959 C146.572155,27.8857959 145.908214,27.7127347 145.366036,27.3682449 C144.822214,27.0229388 144.48325,26.7257959 144.162386,26.3813061 L141.09855,28.1233469 C141.948427,29.1943673 143.001518,29.8719184 143.965755,30.2066122 C144.929168,30.5404898 145.986373,30.7078367 147.135723,30.7078367 C147.894277,30.7078367 148.653655,30.6253878 149.412209,30.4572245 C150.171586,30.2915102 150.85445,30.0180408 151.459977,29.6433469 C152.063859,29.2645714 152.556673,28.7698776 152.935127,28.151102 C153.31605,27.5331429 153.5061,26.7755918 153.5061,25.8776327 C153.5061,24.8931429 153.311114,24.1200816 152.920318,23.556 C152.529523,22.991102 152.039177,22.5470204 151.4427,22.2229388" id="Fill-15" fill="#143746"></path>
                    <path d="M171.335587,18.1772245 L170.157442,15.1845714 L166.905201,15.1845714 L166.905201,10.4490612 L163.237483,12.5331429 L163.237483,15.1845714 L161.036687,15.1845714 L161.036687,18.1772245 L163.237483,18.1772245 L163.237483,25.8474286 C163.237483,27.2980408 163.619228,28.4376327 164.381074,29.2604898 C165.14621,30.0825306 166.298028,30.4947755 167.84311,30.4947755 C168.873987,30.4947755 169.917205,30.360898 170.966183,30.0923265 L169.807783,27.1462041 C169.776519,27.1486531 169.737851,27.1519184 169.708233,27.1543673 C169.364333,27.1739592 168.999042,27.1821224 168.608246,27.1821224 C168.020819,27.1821224 167.590533,27.0523265 167.315742,26.7902857 C167.041774,26.5290612 166.905201,26.1094694 166.905201,25.5274286 L166.905201,18.1772245 L171.335587,18.1772245 Z" id="Fill-17" fill="#143746"></path>
                    <path d="M183.824752,15.1844898 L180.010588,26.1093878 L176.018715,15.1844898 L171.999693,15.1844898 L178.014652,30.2628571 L177.134334,32.3828571 C176.937702,32.8277551 176.680188,33.1273469 176.356856,33.2840816 C176.03517,33.437551 175.706079,33.5159184 175.37452,33.5159184 C175.158143,33.5159184 174.977965,33.5110204 174.83152,33.5012245 C174.683429,33.4922449 174.538629,33.475102 174.389715,33.4571429 C174.244093,33.437551 174.086952,33.4097959 173.922406,33.3714286 C173.773493,33.3355102 173.594138,33.3012245 173.39257,33.2669388 L174.685897,36.5518367 C175.10302,36.6171429 175.581025,36.6530612 176.138011,36.6530612 C176.801952,36.6530612 177.384443,36.5518367 177.883838,36.3485714 C178.382411,36.1444898 178.817634,35.8677551 179.189506,35.52 C179.559734,35.1706122 179.877306,34.7681633 180.142225,34.315102 C180.407143,33.8587755 180.636684,33.3812245 180.832493,32.877551 L187.550884,15.1844898 L183.824752,15.1844898 Z" id="Fill-19" fill="#143746"></path>
                    <polygon id="Fill-21" fill="#143746" points="53.3111641 26.6322449 53.3111641 9.88938776 49.3785277 9.89020408 49.3785277 30.3457143 62.2163641 30.3457143 62.2122505 26.6322449"></polygon>
                    <g id="Group-25" transform="translate(7.404545, 0.262776)">
                        <mask id="mask-2" fill="white">
                            <use xlink:href="#path-1"></use>
                        </mask>
                        <g id="Clip-24"></g>
                        <path d="M12.0527077,6.40057143 L12.0527077,33.336898 L2.087835,39.0013878 C1.16062136,39.5197551 0.00139863636,38.8715918 0.00139863636,37.8348571 L0.00139863636,1.90261224 C0.00139863636,0.865877551 1.16062136,0.217714286 2.087835,0.736081633 L12.0527077,6.40057143 Z" id="Fill-23" fill="#F03232" mask="url(#mask-2)"></path>
                    </g>
                    <g id="Group-28" transform="translate(18.922727, 0.262776)">
                        <mask id="mask-4" fill="white">
                            <use xlink:href="#path-3"></use>
                        </mask>
                        <g id="Clip-27"></g>
                        <path d="M0.534525909,6.40057143 L0.534525909,33.336898 L10.5002214,39.0013878 C11.427435,39.5197551 12.585835,38.8715918 12.585835,37.8348571 L12.585835,1.90261224 C12.585835,0.865877551 11.427435,0.217714286 10.5002214,0.736081633 L0.534525909,6.40057143 Z" id="Fill-26" fill="#FFCD19" mask="url(#mask-4)"></path>
                    </g>
                    <path d="M31.50848,33.6068571 L31.50848,6.65502041 L37.5415391,6.65502041 C38.3000936,6.65502041 38.9154936,7.26481633 38.9154936,8.01828571 L38.9154936,32.2444082 C38.9154936,32.9970612 38.3000936,33.6068571 37.5415391,33.6068571 L31.50848,33.6068571 Z" id="Fill-29" fill="#3287FA"></path>
                    <g id="Group-33" transform="translate(0.000000, 5.977061)">
                        <mask id="mask-6" fill="white">
                            <use xlink:href="#path-5"></use>
                        </mask>
                        <g id="Clip-32"></g>
                        <path d="M7.40676682,27.6297959 L7.40676682,0.677959184 L1.37370773,0.677959184 C0.615153182,0.677959184 -0.000246818182,1.2877551 -0.000246818182,2.04122449 L-0.000246818182,26.2673469 C-0.000246818182,27.02 0.615153182,27.6297959 1.37370773,27.6297959 L7.40676682,27.6297959 Z" id="Fill-31" fill="#D70000" mask="url(#mask-6)"></path>
                    </g>
                    <path d="M205.744,10.4 C211.148,10.4 215.04,14.768 215.04,20.2 C215.04,25.632 211.148,30 205.744,30 L198.1,30 L198.1,10.4 L205.744,10.4 Z M205.744,27.536 C209.776,27.536 212.548,24.344 212.548,20.2 C212.548,16.056 209.776,12.864 205.744,12.864 L200.704,12.864 L200.704,27.536 L205.744,27.536 Z M219.66,24.12 C220.136,26.64 222.124,28.068 224.728,28.068 C226.66,28.068 228.06,27.172 228.76,26.024 L230.832,27.2 C229.6,29.104 227.472,30.364 224.672,30.364 C220.164,30.364 217.168,27.2 217.168,23 C217.168,18.856 220.136,15.636 224.504,15.636 C228.732,15.636 231.476,19.108 231.476,23.028 C231.476,23.392 231.448,23.756 231.392,24.12 L219.66,24.12 Z M224.504,17.932 C221.872,17.932 220.052,19.556 219.66,21.992 L229.012,21.992 C228.592,19.22 226.604,17.932 224.504,17.932 Z M249.396,15.636 C252.504,15.636 254.66,17.792 254.66,21.292 L254.66,30 L252.224,30 L252.224,21.376 C252.224,19.164 250.992,17.96 249.144,17.96 C247.184,17.96 245.7,19.192 245.7,22.216 L245.7,30 L243.264,30 L243.264,21.376 C243.264,19.164 242.116,17.96 240.296,17.96 C238.42,17.96 236.712,19.192 236.712,22.216 L236.712,30 L234.276,30 L234.276,16 L236.712,16 L236.712,17.876 C237.72,16.308 239.176,15.636 240.884,15.636 C242.788,15.636 244.188,16.504 245,18.016 C245.98,16.42 247.576,15.636 249.396,15.636 Z M264.628,30.364 C260.54,30.364 257.264,27.144 257.264,23 C257.264,18.856 260.54,15.636 264.628,15.636 C268.716,15.636 272.02,18.856 272.02,23 C272.02,27.144 268.716,30.364 264.628,30.364 Z M264.628,27.984 C267.428,27.984 269.584,25.828 269.584,23 C269.584,20.172 267.428,18.016 264.628,18.016 C261.856,18.016 259.7,20.172 259.7,23 C259.7,25.828 261.856,27.984 264.628,27.984 Z M277.004,19.78 C277.004,22.776 284.844,21.012 284.844,26.164 C284.844,28.768 282.604,30.364 279.608,30.364 C276.808,30.364 274.848,29.02 274.036,27.088 L276.136,25.884 C276.584,27.228 277.872,28.068 279.608,28.068 C281.092,28.068 282.38,27.536 282.38,26.164 C282.38,23.168 274.54,24.876 274.54,19.808 C274.54,17.344 276.668,15.636 279.496,15.636 C281.792,15.636 283.64,16.728 284.536,18.548 L282.492,19.696 C281.96,18.436 280.728,17.904 279.496,17.904 C278.236,17.904 277.004,18.52 277.004,19.78 Z" id="Demos" fill="#143746"></path>
                </g>
            </g>
        </g>
    </g>
</svg>